<?xml version="1.0" encoding="UTF-8"?>
<svg width="100" height="100" viewBox="0 0 100 100" xmlns="http://www.w3.org/2000/svg">
  <!-- Base/Frame -->
  <rect x="10" y="60" width="80" height="30" rx="2" fill="#4a4a4a" stroke="#333" stroke-width="1"/>
  
  <!-- Wheels -->
  <circle cx="25" cy="90" r="8" fill="#333" stroke="#222" stroke-width="1"/>
  <circle cx="75" cy="90" r="8" fill="#333" stroke="#222" stroke-width="1"/>
  
  <!-- AC Unit Body -->
  <rect x="15" y="15" width="70" height="45" rx="3" fill="#3498db" stroke="#2980b9" stroke-width="1"/>
  
  <!-- Vents -->
  <rect x="20" y="20" width="60" height="5" rx="1" fill="#ecf0f1" stroke="#bdc3c7" stroke-width="1"/>
  <rect x="20" y="30" width="60" height="5" rx="1" fill="#ecf0f1" stroke="#bdc3c7" stroke-width="1"/>
  <rect x="20" y="40" width="60" height="5" rx="1" fill="#ecf0f1" stroke="#bdc3c7" stroke-width="1"/>
  
  <!-- Vent Lines -->
  <line x1="25" y1="22.5" x2="75" y2="22.5" stroke="#bdc3c7" stroke-width="1"/>
  <line x1="25" y1="32.5" x2="75" y2="32.5" stroke="#bdc3c7" stroke-width="1"/>
  <line x1="25" y1="42.5" x2="75" y2="42.5" stroke="#bdc3c7" stroke-width="1"/>
  
  <!-- Control Panel -->
  <rect x="25" y="50" width="50" height="8" rx="1" fill="#34495e" stroke="#2c3e50" stroke-width="1"/>
  
  <!-- Temperature Dial -->
  <circle cx="35" cy="54" r="3" fill="#ecf0f1" stroke="#bdc3c7" stroke-width="1"/>
  <line x1="35" y1="54" x2="37" y2="52" stroke="#e74c3c" stroke-width="1"/>
  
  <!-- Fan Speed Buttons -->
  <circle cx="50" cy="54" r="2" fill="#3498db"/>
  <circle cx="58" cy="54" r="2" fill="#2ecc71"/>
  <circle cx="66" cy="54" r="2" fill="#f1c40f"/>
  
  <!-- Cooling Coils (Visible on Side) -->
  <rect x="85" y="20" width="5" height="35" rx="1" fill="#7f8c8d" stroke="#636e72" stroke-width="1"/>
  
  <!-- Model Number -->
  <text x="35" y="75" font-family="Arial" font-size="10" font-weight="bold" fill="white">-60 A/C</text>
  
  <!-- Snowflake Symbol -->
  <path d="M50,10 L52,12 L50,14 L48,12 Z M50,6 L50,14 M46,8 L54,12 M46,12 L54,8" stroke="#ecf0f1" stroke-width="1.5" fill="none"/>
</svg>
