<svg xmlns="http://www.w3.org/2000/svg" width="24" height="24" viewBox="0 0 24 24" fill="#4F8EF7">
  <path d="M22 3c.53 0 1.039.211 1.414.586s.586.884.586 1.414v14c0 .53-.211 1.039-.586 1.414s-.884.586-1.414.586h-20c-.53 0-1.039-.211-1.414-.586s-.586-.884-.586-1.414v-14c0-.53.211-1.039.586-1.414s.884-.586 1.414-.586h20zm1 4h-22v12c0 .276.111.525.293.707s.431.293.707.293h20c.276 0 .525-.111.707-.293s.293-.431.293-.707v-12zm-9 6c0-1.657-1.343-3-3-3s-3 1.343-3 3 1.343 3 3 3 3-1.343 3-3zm-4 0c0-.552.448-1 1-1s1 .448 1 1-.448 1-1 1-1-.448-1-1zm10-4h-8v1h8v-1zm0 3h-8v1h8v-1zm0 3h-8v1h8v-1z"/>
</svg>
