<svg xmlns="http://www.w3.org/2000/svg" width="24" height="24" viewBox="0 0 24 24" fill="#4F8EF7">
  <path d="M4.5 7.653c.6.24 1.158.598 1.64 1.058l1.018-1.008c-.646-.576-1.35-1.043-2.158-1.377v1.327zm11.995-1.938h-1.995v-2.215c-1.254 0-2.317.147-3.389.6-1.107.465-2.069 1.172-2.858 1.96l-.063.063 4.004 4.004c.24-.371.431-.777.536-1.193.11-.438.165-.887.165-1.336h-2.995l3.675-3.675c.61.61.61 1.535 0 2.145l-.75.747 1.414 1.414.747-.747c1.275-1.275 1.275-3.43 0-4.705l-1.491 1.491v1.447zm-8.82.93c-.517.517-.517 1.36 0 1.878.517.517 1.36.517 1.878 0 .517-.517.517-1.36 0-1.878-.517-.517-1.36-.517-1.878 0zm13.325 6.355c0 2.761-2.238 5-5 5h-11c-2.762 0-5-2.239-5-5v-3h21v3zm-2-7h-17v2h17v-2z"/>
</svg>
